<?xml version="1.0" encoding="UTF-8"?>
<svg id="Layer_2" data-name="Layer 2" xmlns="http://www.w3.org/2000/svg" viewBox="0 0 1076.36 1024">
  <defs>
    <style>
      .cls-1 {
        fill: #abb4b9;
      }

      .cls-2 {
        fill: #fff;
      }

      .cls-3 {
        fill: red;
      }
    </style>
  </defs>
  <path class="cls-2" d="M26.01,271.04c1.14,1.98,2.61,3.6,4.41,4.86,1.8,1.26,3.87,2.19,6.21,2.79,2.34.6,4.77.9,7.29.9,1.8,0,3.69-.21,5.67-.63,1.98-.42,3.78-1.08,5.4-1.98s2.97-2.1,4.05-3.6c1.08-1.5,1.62-3.39,1.62-5.67,0-3.84-2.55-6.72-7.65-8.64-5.1-1.92-12.21-3.84-21.33-5.76-3.72-.84-7.35-1.83-10.89-2.97-3.54-1.14-6.69-2.64-9.45-4.5-2.76-1.86-4.98-4.2-6.66-7.02-1.68-2.82-2.52-6.27-2.52-10.35,0-6,1.17-10.92,3.51-14.76,2.34-3.84,5.43-6.87,9.27-9.09,3.84-2.22,8.16-3.78,12.96-4.68,4.8-.9,9.72-1.35,14.76-1.35s9.93.48,14.67,1.44c4.74.96,8.97,2.58,12.69,4.86,3.72,2.28,6.81,5.31,9.27,9.09,2.46,3.78,3.93,8.55,4.41,14.31h-24.3c-.36-4.92-2.22-8.25-5.58-9.99-3.36-1.74-7.32-2.61-11.88-2.61-1.44,0-3,.09-4.68.27-1.68.18-3.21.57-4.59,1.17-1.38.6-2.55,1.47-3.51,2.61-.96,1.14-1.44,2.67-1.44,4.59,0,2.28.84,4.14,2.52,5.58,1.68,1.44,3.87,2.61,6.57,3.51,2.7.9,5.79,1.71,9.27,2.43,3.48.72,7.02,1.5,10.62,2.34,3.72.84,7.35,1.86,10.89,3.06,3.54,1.2,6.69,2.79,9.45,4.77,2.76,1.98,4.98,4.44,6.66,7.38,1.68,2.94,2.52,6.57,2.52,10.89,0,6.12-1.23,11.25-3.69,15.39-2.46,4.14-5.67,7.47-9.63,9.99s-8.49,4.29-13.59,5.31c-5.1,1.02-10.29,1.53-15.57,1.53s-10.68-.54-15.84-1.62c-5.16-1.08-9.75-2.88-13.77-5.4-4.02-2.52-7.32-5.85-9.9-9.99-2.58-4.14-3.99-9.33-4.23-15.57h24.3c0,2.76.57,5.13,1.71,7.11Z"/>
  <path class="cls-2" d="M123.52,271.85c3.84,3.72,9.36,5.58,16.56,5.58,5.16,0,9.6-1.29,13.32-3.87,3.72-2.58,6-5.31,6.84-8.19h22.5c-3.6,11.16-9.12,19.14-16.56,23.94-7.44,4.8-16.44,7.2-27,7.2-7.32,0-13.92-1.17-19.8-3.51-5.88-2.34-10.86-5.67-14.94-9.99-4.08-4.32-7.23-9.48-9.45-15.48-2.22-6-3.33-12.6-3.33-19.8s1.14-13.44,3.42-19.44c2.28-6,5.52-11.19,9.72-15.57,4.2-4.38,9.21-7.83,15.03-10.35s12.27-3.78,19.35-3.78c7.92,0,14.82,1.53,20.7,4.59,5.88,3.06,10.71,7.17,14.49,12.33,3.78,5.16,6.51,11.04,8.19,17.64,1.68,6.6,2.28,13.5,1.8,20.7h-67.14c.36,8.28,2.46,14.28,6.3,18ZM152.41,222.89c-3.06-3.36-7.71-5.04-13.95-5.04-4.08,0-7.47.69-10.17,2.07-2.7,1.38-4.86,3.09-6.48,5.13-1.62,2.04-2.76,4.2-3.42,6.48-.66,2.28-1.05,4.32-1.17,6.12h41.58c-1.2-6.48-3.33-11.4-6.39-14.76Z"/>
  <path class="cls-2" d="M238.94,217.85c-4.08,0-7.5.93-10.26,2.79-2.76,1.86-5.01,4.26-6.75,7.2-1.74,2.94-2.97,6.18-3.69,9.72-.72,3.54-1.08,7.05-1.08,10.53s.36,6.78,1.08,10.26c.72,3.48,1.89,6.63,3.51,9.45,1.62,2.82,3.81,5.13,6.57,6.93,2.76,1.8,6.12,2.7,10.08,2.7,6.12,0,10.83-1.71,14.13-5.13,3.3-3.42,5.37-8.01,6.21-13.77h24.66c-1.68,12.36-6.48,21.78-14.4,28.26s-18.06,9.72-30.42,9.72c-6.96,0-13.35-1.17-19.17-3.51-5.82-2.34-10.77-5.61-14.85-9.81-4.08-4.2-7.26-9.21-9.54-15.03-2.28-5.82-3.42-12.21-3.42-19.17s1.05-13.89,3.15-20.07c2.1-6.18,5.19-11.52,9.27-16.02,4.08-4.5,9.06-8.01,14.94-10.53,5.88-2.52,12.6-3.78,20.16-3.78,5.52,0,10.83.72,15.93,2.16,5.1,1.44,9.66,3.63,13.68,6.57,4.02,2.94,7.29,6.6,9.81,10.98,2.52,4.38,3.96,9.57,4.32,15.57h-25.02c-1.68-10.68-7.98-16.02-18.9-16.02Z"/>
  <path class="cls-2" d="M354.79,294.17v-12.96h-.54c-3.24,5.4-7.44,9.3-12.6,11.7-5.16,2.4-10.44,3.6-15.84,3.6-6.84,0-12.45-.9-16.83-2.7-4.38-1.8-7.83-4.35-10.35-7.65-2.52-3.3-4.29-7.32-5.31-12.06-1.02-4.74-1.53-9.99-1.53-15.75v-57.24h25.56v52.56c0,7.68,1.2,13.41,3.6,17.19,2.4,3.78,6.66,5.67,12.78,5.67,6.96,0,12-2.07,15.12-6.21,3.12-4.14,4.68-10.95,4.68-20.43v-48.78h25.56v93.06h-24.3Z"/>
  <path class="cls-2" d="M416.83,201.11v17.28h.36c1.2-2.88,2.82-5.55,4.86-8.01,2.04-2.46,4.38-4.56,7.02-6.3,2.64-1.74,5.46-3.09,8.46-4.05,3-.96,6.12-1.44,9.36-1.44,1.68,0,3.54.3,5.58.9v23.76c-1.2-.24-2.64-.45-4.32-.63-1.68-.18-3.3-.27-4.86-.27-4.68,0-8.64.78-11.88,2.34-3.24,1.56-5.85,3.69-7.83,6.39-1.98,2.7-3.39,5.85-4.23,9.45-.84,3.6-1.26,7.5-1.26,11.7v41.94h-25.56v-93.06h24.3Z"/>
  <path class="cls-1" d="M510.67,271.85c3.84,3.72,9.36,5.58,16.56,5.58,5.16,0,9.6-1.29,13.32-3.87,3.72-2.58,6-5.31,6.84-8.19h22.5c-3.6,11.16-9.12,19.14-16.56,23.94-7.44,4.8-16.44,7.2-27,7.2-7.32,0-13.92-1.17-19.8-3.51-5.88-2.34-10.86-5.67-14.94-9.99-4.08-4.32-7.23-9.48-9.45-15.48-2.22-6-3.33-12.6-3.33-19.8s1.14-13.44,3.42-19.44c2.28-6,5.52-11.19,9.72-15.57,4.2-4.38,9.21-7.83,15.03-10.35,5.82-2.52,12.27-3.78,19.35-3.78,7.92,0,14.82,1.53,20.7,4.59,5.88,3.06,10.71,7.17,14.49,12.33,3.78,5.16,6.51,11.04,8.19,17.64,1.68,6.6,2.28,13.5,1.8,20.7h-67.14c.36,8.28,2.46,14.28,6.3,18ZM539.56,222.89c-3.06-3.36-7.71-5.04-13.95-5.04-4.08,0-7.47.69-10.17,2.07-2.7,1.38-4.86,3.09-6.48,5.13-1.62,2.04-2.76,4.2-3.42,6.48-.66,2.28-1.05,4.32-1.17,6.12h41.58c-1.2-6.48-3.33-11.4-6.39-14.76Z"/>
  <path class="cls-1" d="M604.47,201.11v12.6h.36c3.36-4.8,7.41-8.52,12.15-11.16,4.74-2.64,10.17-3.96,16.29-3.96s11.25,1.14,16.11,3.42c4.86,2.28,8.55,6.3,11.07,12.06,2.76-4.08,6.51-7.68,11.25-10.8,4.74-3.12,10.35-4.68,16.83-4.68,4.92,0,9.48.6,13.68,1.8,4.2,1.2,7.8,3.12,10.8,5.76,3,2.64,5.34,6.09,7.02,10.35,1.68,4.26,2.52,9.39,2.52,15.39v62.28h-25.56v-52.74c0-3.12-.12-6.06-.36-8.82-.24-2.76-.9-5.16-1.98-7.2-1.08-2.04-2.67-3.66-4.77-4.86-2.1-1.2-4.95-1.8-8.55-1.8s-6.51.69-8.73,2.07c-2.22,1.38-3.96,3.18-5.22,5.4-1.26,2.22-2.1,4.74-2.52,7.56-.42,2.82-.63,5.67-.63,8.55v51.84h-25.56v-52.2c0-2.76-.06-5.49-.18-8.19-.12-2.7-.63-5.19-1.53-7.47-.9-2.28-2.4-4.11-4.5-5.49-2.1-1.38-5.19-2.07-9.27-2.07-1.2,0-2.79.27-4.77.81-1.98.54-3.9,1.56-5.76,3.06-1.86,1.5-3.45,3.66-4.77,6.48-1.32,2.82-1.98,6.51-1.98,11.07v54h-25.56v-93.06h24.12Z"/>
  <path class="cls-3" d="M498.23,177.1h-23.81l-13.02,45.76h5.95s12.65-11.9,18.23-20.09c10.79-12.28,12.65-25.67,12.65-25.67Z"/>
</svg>